# xmcd CD database file
#
# Track frame offsets:
#	150
#	21606
#	45285
#	66082
#	89157
#	112956
#	137432
#	148255
#	170618
#	192761
#	214131
#	234541
#	254676
#
# Disc length: 3705 seconds
#
# Revision: 19
# Processed by: cddbd v1.5.2PL0 Copyright (c) Steve Scherf et al.
# Submitted via: CDex 1.70beta3
#
DISCID=c30e770d
DTITLE=宇多田ヒカル - SINGLE COLLECTION VOL.2
DYEAR=2010
DGENRE=J-Pop
TTITLE0=Prisoner Of Love
TTITLE1=Stay Gold
TTITLE2=HEART STATION
TTITLE3=Kiss and Cry
TTITLE4=Beautiful World
TTITLE5=Flavor Of Life -Ballad Version-
TTITLE6=ぼくはくま
TTITLE7=This Is Love
TTITLE8=Keep Tryin'
TTITLE9=Passion
TTITLE10=Be My Last
TTITLE11=誰かの願いが叶うころ
TTITLE12=Beautiful World -PLANiTb Acoustica Mix-
EXTD=YEAR: 2010
EXTT0=
EXTT1=
EXTT2=
EXTT3=
EXTT4=
EXTT5=
EXTT6=
EXTT7=
EXTT8=
EXTT9=
EXTT10=
EXTT11=
EXTT12=
PLAYORDER=
